<svg xmlns="http://www.w3.org/2000/svg" viewBox="0 0 1200 280" role="img" aria-label="FPGA TETRIS">
<title>FPGA TETRIS</title>
<style>
.kick{font:700 15px ui-monospace,SFMono-Regular,Menlo,Consolas,monospace;letter-spacing:3px;fill:#22D3EE}
.title{font:800 56px system-ui,-apple-system,'Segoe UI',Helvetica,Arial,sans-serif;letter-spacing:1.5px;fill:#ffffff}
.tag{font:500 21px system-ui,-apple-system,'Segoe UI',Helvetica,Arial,sans-serif;fill:#ffffff;opacity:.86}
.m{font:500 13px ui-monospace,SFMono-Regular,Menlo,Consolas,monospace} .mb{font:700 14px ui-monospace,SFMono-Regular,Menlo,Consolas,monospace} .mbig{font:800 20px system-ui,-apple-system,'Segoe UI',Helvetica,Arial,sans-serif} .big{font:800 30px system-ui,-apple-system,'Segoe UI',Helvetica,Arial,sans-serif} .term{font:500 15px ui-monospace,SFMono-Regular,Menlo,Consolas,monospace}
.bar{fill:#22D3EE}
@keyframes fall{0%{transform:translateY(0)}70%,100%{transform:translateY(78px)}} .fall{animation:fall 3.2s steps(3,end) infinite}
@media (prefers-reduced-motion:reduce){*{animation:none!important}}
</style>
<defs><linearGradient id="g" x1="0" y1="0" x2="1" y2="1"><stop offset="0" stop-color="#0B1020"/><stop offset="1" stop-color="#1E1B4B"/></linearGradient></defs>
<rect width="1200" height="280" rx="20" fill="url(#g)"/>
<rect class="bar" x="64" y="62" width="44" height="5" rx="2.5"/>
<text x="64" y="100" class="kick">SYSTEMVERILOG · ZEDBOARD · VGA</text>
<text x="64" y="158" class="title">FPGA TETRIS</text>
<text x="64" y="196" class="tag">A game about moving small blocks, designed one clock</text>
<text x="64" y="224" class="tag">cycle at a time</text>
<g transform="translate(810,50)"><g transform="translate(40,0)"><rect x="0" y="0" width="23" height="23" rx="4" fill="#ffffff" opacity=".05"/><rect x="0" y="26" width="23" height="23" rx="4" fill="#ffffff" opacity=".05"/><rect x="0" y="52" width="23" height="23" rx="4" fill="#ffffff" opacity=".05"/><rect x="0" y="78" width="23" height="23" rx="4" fill="#ffffff" opacity=".05"/><rect x="0" y="104" width="23" height="23" rx="4" fill="#ffffff" opacity=".05"/><rect x="0" y="130" width="23" height="23" rx="4" fill="#ffffff" opacity=".05"/><rect x="0" y="156" width="23" height="23" rx="4" fill="#ffffff" opacity=".05"/><rect x="26" y="0" width="23" height="23" rx="4" fill="#ffffff" opacity=".05"/><rect x="26" y="26" width="23" height="23" rx="4" fill="#ffffff" opacity=".05"/><rect x="26" y="52" width="23" height="23" rx="4" fill="#ffffff" opacity=".05"/><rect x="26" y="78" width="23" height="23" rx="4" fill="#ffffff" opacity=".05"/><rect x="26" y="104" width="23" height="23" rx="4" fill="#ffffff" opacity=".05"/><rect x="26" y="130" width="23" height="23" rx="4" fill="#ffffff" opacity=".05"/><rect x="26" y="156" width="23" height="23" rx="4" fill="#ffffff" opacity=".05"/><rect x="52" y="0" width="23" height="23" rx="4" fill="#ffffff" opacity=".05"/><rect x="52" y="26" width="23" height="23" rx="4" fill="#ffffff" opacity=".05"/><rect x="52" y="52" width="23" height="23" rx="4" fill="#ffffff" opacity=".05"/><rect x="52" y="78" width="23" height="23" rx="4" fill="#ffffff" opacity=".05"/><rect x="52" y="104" width="23" height="23" rx="4" fill="#ffffff" opacity=".05"/><rect x="52" y="130" width="23" height="23" rx="4" fill="#ffffff" opacity=".05"/><rect x="52" y="156" width="23" height="23" rx="4" fill="#ffffff" opacity=".05"/><rect x="78" y="0" width="23" height="23" rx="4" fill="#ffffff" opacity=".05"/><rect x="78" y="26" width="23" height="23" rx="4" fill="#ffffff" opacity=".05"/><rect x="78" y="52" width="23" height="23" rx="4" fill="#ffffff" opacity=".05"/><rect x="78" y="78" width="23" height="23" rx="4" fill="#ffffff" opacity=".05"/><rect x="78" y="104" width="23" height="23" rx="4" fill="#ffffff" opacity=".05"/><rect x="78" y="130" width="23" height="23" rx="4" fill="#ffffff" opacity=".05"/><rect x="78" y="156" width="23" height="23" rx="4" fill="#ffffff" opacity=".05"/><rect x="104" y="0" width="23" height="23" rx="4" fill="#ffffff" opacity=".05"/><rect x="104" y="26" width="23" height="23" rx="4" fill="#ffffff" opacity=".05"/><rect x="104" y="52" width="23" height="23" rx="4" fill="#ffffff" opacity=".05"/><rect x="104" y="78" width="23" height="23" rx="4" fill="#ffffff" opacity=".05"/><rect x="104" y="104" width="23" height="23" rx="4" fill="#ffffff" opacity=".05"/><rect x="104" y="130" width="23" height="23" rx="4" fill="#ffffff" opacity=".05"/><rect x="104" y="156" width="23" height="23" rx="4" fill="#ffffff" opacity=".05"/><rect x="130" y="0" width="23" height="23" rx="4" fill="#ffffff" opacity=".05"/><rect x="130" y="26" width="23" height="23" rx="4" fill="#ffffff" opacity=".05"/><rect x="130" y="52" width="23" height="23" rx="4" fill="#ffffff" opacity=".05"/><rect x="130" y="78" width="23" height="23" rx="4" fill="#ffffff" opacity=".05"/><rect x="130" y="104" width="23" height="23" rx="4" fill="#ffffff" opacity=".05"/><rect x="130" y="130" width="23" height="23" rx="4" fill="#ffffff" opacity=".05"/><rect x="130" y="156" width="23" height="23" rx="4" fill="#ffffff" opacity=".05"/><rect x="156" y="0" width="23" height="23" rx="4" fill="#ffffff" opacity=".05"/><rect x="156" y="26" width="23" height="23" rx="4" fill="#ffffff" opacity=".05"/><rect x="156" y="52" width="23" height="23" rx="4" fill="#ffffff" opacity=".05"/><rect x="156" y="78" width="23" height="23" rx="4" fill="#ffffff" opacity=".05"/><rect x="156" y="104" width="23" height="23" rx="4" fill="#ffffff" opacity=".05"/><rect x="156" y="130" width="23" height="23" rx="4" fill="#ffffff" opacity=".05"/><rect x="156" y="156" width="23" height="23" rx="4" fill="#ffffff" opacity=".05"/><rect x="182" y="0" width="23" height="23" rx="4" fill="#ffffff" opacity=".05"/><rect x="182" y="26" width="23" height="23" rx="4" fill="#ffffff" opacity=".05"/><rect x="182" y="52" width="23" height="23" rx="4" fill="#ffffff" opacity=".05"/><rect x="182" y="78" width="23" height="23" rx="4" fill="#ffffff" opacity=".05"/><rect x="182" y="104" width="23" height="23" rx="4" fill="#ffffff" opacity=".05"/><rect x="182" y="130" width="23" height="23" rx="4" fill="#ffffff" opacity=".05"/><rect x="182" y="156" width="23" height="23" rx="4" fill="#ffffff" opacity=".05"/><rect x="208" y="0" width="23" height="23" rx="4" fill="#ffffff" opacity=".05"/><rect x="208" y="26" width="23" height="23" rx="4" fill="#ffffff" opacity=".05"/><rect x="208" y="52" width="23" height="23" rx="4" fill="#ffffff" opacity=".05"/><rect x="208" y="78" width="23" height="23" rx="4" fill="#ffffff" opacity=".05"/><rect x="208" y="104" width="23" height="23" rx="4" fill="#ffffff" opacity=".05"/><rect x="208" y="130" width="23" height="23" rx="4" fill="#ffffff" opacity=".05"/><rect x="208" y="156" width="23" height="23" rx="4" fill="#ffffff" opacity=".05"/><rect x="234" y="0" width="23" height="23" rx="4" fill="#ffffff" opacity=".05"/><rect x="234" y="26" width="23" height="23" rx="4" fill="#ffffff" opacity=".05"/><rect x="234" y="52" width="23" height="23" rx="4" fill="#ffffff" opacity=".05"/><rect x="234" y="78" width="23" height="23" rx="4" fill="#ffffff" opacity=".05"/><rect x="234" y="104" width="23" height="23" rx="4" fill="#ffffff" opacity=".05"/><rect x="234" y="130" width="23" height="23" rx="4" fill="#ffffff" opacity=".05"/><rect x="234" y="156" width="23" height="23" rx="4" fill="#ffffff" opacity=".05"/><rect x="0" y="156" width="23" height="23" rx="4" fill="#22D3EE" /><rect x="26" y="156" width="23" height="23" rx="4" fill="#22D3EE" /><rect x="52" y="156" width="23" height="23" rx="4" fill="#22D3EE" /><rect x="78" y="156" width="23" height="23" rx="4" fill="#22D3EE" /><rect x="104" y="156" width="23" height="23" rx="4" fill="#FACC15" /><rect x="130" y="156" width="23" height="23" rx="4" fill="#FACC15" /><rect x="104" y="130" width="23" height="23" rx="4" fill="#FACC15" /><rect x="130" y="130" width="23" height="23" rx="4" fill="#FACC15" /><rect x="156" y="156" width="23" height="23" rx="4" fill="#22C55E" /><rect x="182" y="156" width="23" height="23" rx="4" fill="#22C55E" /><rect x="182" y="130" width="23" height="23" rx="4" fill="#22C55E" /><rect x="208" y="130" width="23" height="23" rx="4" fill="#22C55E" /><rect x="234" y="156" width="23" height="23" rx="4" fill="#F97316" /><rect x="234" y="130" width="23" height="23" rx="4" fill="#F97316" /><rect x="234" y="104" width="23" height="23" rx="4" fill="#F97316" /><rect x="208" y="156" width="23" height="23" rx="4" fill="#F97316" /><rect x="0" y="130" width="23" height="23" rx="4" fill="#EF4444" /><rect x="26" y="130" width="23" height="23" rx="4" fill="#EF4444" /><rect x="26" y="104" width="23" height="23" rx="4" fill="#EF4444" /><rect x="52" y="104" width="23" height="23" rx="4" fill="#EF4444" /><rect x="52" y="130" width="23" height="23" rx="4" fill="#3B82F6" /><rect x="78" y="130" width="23" height="23" rx="4" fill="#3B82F6" /><rect x="78" y="104" width="23" height="23" rx="4" fill="#3B82F6" /><g class="fall"><rect x="130" y="0" width="23" height="23" rx="4" fill="#A855F7" /><rect x="156" y="0" width="23" height="23" rx="4" fill="#A855F7" /><rect x="182" y="0" width="23" height="23" rx="4" fill="#A855F7" /><rect x="156" y="26" width="23" height="23" rx="4" fill="#A855F7" /></g></g></g>
</svg>
